<?xml version="1.0" encoding="UTF-8" standalone="no"?>
<svg width="2221px" height="1205px" viewBox="0 0 2221 1205" version="1.1" xmlns="http://www.w3.org/2000/svg" xmlns:xlink="http://www.w3.org/1999/xlink">
    <!-- Generator: Sketch 40.1 (33804) - http://www.bohemiancoding.com/sketch -->
    <title>TableOfContents-LABs</title>
    <desc>Created with Sketch.</desc>
    <defs></defs>
    <g id="Lab-2---Data-Flow" stroke="none" stroke-width="1" fill="none" fill-rule="evenodd">
        <g id="TableOfContents-LABs">
            <g id="All-Demo-LAB" transform="translate(69.000000, 70.000000)">
                <g id="All-Demo" transform="translate(3.000000, 49.000000)">
                    <g id="Lines" transform="translate(165.000000, 67.000000)" stroke-linecap="square" stroke-width="4">
                        <g id="Group-5" transform="translate(0.000000, 327.000000)">
                            <path d="M0,39.6666667 L407.002184,39.6666667" id="Line" stroke="#FAC51C"></path>
                            <path id="Line-decoration-1" d="M0,36.6666667 L0,42.6666667" stroke="#FAC51C"></path>
                            <path id="Line-decoration-2" d="M396.202184,42.6666667 L407.002184,39.6666667 L396.202184,36.6666667" stroke="#FAC51C"></path>
                            <path d="M0,76.6666667 L388.00358,76.6666667" id="Line" stroke="#61BD6D"></path>
                            <path id="Line-decoration-1" d="M0,73.6666667 L0,79.6666667" stroke="#61BD6D"></path>
                            <path id="Line-decoration-2" d="M377.20358,79.6666667 L388.00358,76.6666667 L377.20358,73.6666667" stroke="#61BD6D"></path>
                            <path d="M0,113.666667 L414.006575,113.666667" id="Line" stroke="#9365B8"></path>
                            <path id="Line-decoration-1" d="M0,110.666667 L0,116.666667" stroke="#9365B8"></path>
                            <path id="Line-decoration-2" d="M403.206575,116.666667 L414.006575,113.666667 L403.206575,110.666667" stroke="#9365B8"></path>
                            <path d="M0,150.666667 L438.006215,150.666667" id="Line" stroke="#E25041"></path>
                            <path id="Line-decoration-1" d="M0,147.666667 L0,153.666667" stroke="#E25041"></path>
                            <path id="Line-decoration-2" d="M427.206215,153.666667 L438.006215,150.666667 L427.206215,147.666667" stroke="#E25041"></path>
                            <path d="M0,1.66666667 L166.05655,1.66666667" id="Line" stroke="#A38F84"></path>
                            <path id="Line-decoration-1" d="M0,-1.33333333 L0,4.66666667" stroke="#A38F84"></path>
                            <path id="Line-decoration-2" d="M155.25655,4.66666667 L166.05655,1.66666667 L155.25655,-1.33333333" stroke="#A38F84"></path>
                        </g>
                        <g id="Group-8" transform="translate(471.000000, 128.000000)">
                            <path d="M1,202 L1,2" id="Line-Copy" stroke="#FAC51C"></path>
                            <path id="Line-Copy-decoration-1" d="M-2,202 L4,202" stroke="#FAC51C"></path>
                            <path id="Line-Copy-decoration-2" d="M4,12.8 L1,2 L-2,12.8" stroke="#FAC51C"></path>
                            <path d="M67.7687147,200 L67.7687147,1.42108547e-14" id="Line-Copy" stroke="#61BD6D"></path>
                            <path id="Line-Copy-decoration-1" d="M64.7687147,200 L70.7687147,200" stroke="#61BD6D"></path>
                            <path id="Line-Copy-decoration-2" d="M70.7687147,10.8 L67.7687147,1.42108547e-14 L64.7687147,10.8" stroke="#61BD6D"></path>
                        </g>
                        <g id="Group-7" transform="translate(575.000000, 0.000000)">
                            <path d="M0,1 L300,1" id="Line-Copy" stroke="#FAC51C"></path>
                            <path id="Line-Copy-decoration-1" d="M0,-2 L0,4" stroke="#FAC51C"></path>
                            <path id="Line-Copy-decoration-2" d="M289.2,4 L300,1 L289.2,-2" stroke="#FAC51C"></path>
                            <path d="M0,74 L300,74" id="Line-Copy" stroke="#61BD6D"></path>
                            <path id="Line-Copy-decoration-1" d="M0,71 L0,77" stroke="#61BD6D"></path>
                            <path id="Line-Copy-decoration-2" d="M289.2,77 L300,74 L289.2,71" stroke="#61BD6D"></path>
                        </g>
                        <g id="Group-7" transform="translate(575.000000, 0.000000)">
                            <path d="M0,1 L300,1" id="Line-Copy" stroke="#FAC51C"></path>
                            <path id="Line-Copy-decoration-1" d="M0,-2 L0,4" stroke="#FAC51C"></path>
                            <path id="Line-Copy-decoration-2" d="M289.2,4 L300,1 L289.2,-2" stroke="#FAC51C"></path>
                            <path d="M0,74 L300,74" id="Line-Copy" stroke="#61BD6D"></path>
                            <path id="Line-Copy-decoration-1" d="M0,71 L0,77" stroke="#61BD6D"></path>
                            <path id="Line-Copy-decoration-2" d="M289.2,77 L300,74 L289.2,71" stroke="#61BD6D"></path>
                        </g>
                        <g id="Group-7" transform="translate(1155.000000, 0.000000)">
                            <path d="M0,1 L300,1" id="Line-Copy" stroke="#FAC51C"></path>
                            <path id="Line-Copy-decoration-1" d="M0,-2 L0,4" stroke="#FAC51C"></path>
                            <path id="Line-Copy-decoration-2" d="M289.2,4 L300,1 L289.2,-2" stroke="#FAC51C"></path>
                            <path d="M0,74 L300,74" id="Line-Copy" stroke="#61BD6D"></path>
                            <path id="Line-Copy-decoration-1" d="M0,71 L0,77" stroke="#61BD6D"></path>
                            <path id="Line-Copy-decoration-2" d="M289.2,77 L300,74 L289.2,71" stroke="#61BD6D"></path>
                        </g>
                        <g id="Group-6" transform="translate(575.000000, 719.000000)">
                            <path d="M0,1 L300,1" id="Line-Copy" stroke="#E25041"></path>
                            <path id="Line-Copy-decoration-1" d="M0,-2 L0,4" stroke="#E25041"></path>
                            <path id="Line-Copy-decoration-2" d="M289.2,4 L300,1 L289.2,-2" stroke="#E25041"></path>
                            <path d="M0,74 L300,74" id="Line-Copy" stroke="#9365B8"></path>
                            <path id="Line-Copy-decoration-1" d="M0,71 L0,77" stroke="#9365B8"></path>
                            <path id="Line-Copy-decoration-2" d="M289.2,77 L300,74 L289.2,71" stroke="#9365B8"></path>
                        </g>
                        <path d="M471,464 L471,664" id="Line-Copy" stroke="#9365B8"></path>
                        <path id="Line-Copy-decoration-1" d="M474,464 L468,464" stroke="#9365B8"></path>
                        <path id="Line-Copy-decoration-2" d="M468,653.2 L471,664 L474,653.2" stroke="#9365B8"></path>
                        <path d="M536,464 L536,664" id="Line-Copy" stroke="#E25041"></path>
                        <path id="Line-Copy-decoration-1" d="M539,464 L533,464" stroke="#E25041"></path>
                        <path id="Line-Copy-decoration-2" d="M533,653.2 L536,664 L539,653.2" stroke="#E25041"></path>
                        <g id="Group-8" transform="translate(1560.500000, 358.500000) rotate(180.000000) translate(-1560.500000, -358.500000) translate(1495.000000, 95.000000)">
                            <path d="M1,526.732673 L1,-5.68434189e-14" id="Line-Copy" stroke="#FAC51C"></path>
                            <path id="Line-Copy-decoration-1" d="M-2,526.732673 L4,526.732673" stroke="#FAC51C"></path>
                            <path id="Line-Copy-decoration-2" d="M4,10.8 L1,-5.68434189e-14 L-2,10.8" stroke="#FAC51C"></path>
                            <path d="M130,526.732673 L130,-5.68434189e-14" id="Line-Copy" stroke="#61BD6D"></path>
                            <path id="Line-Copy-decoration-1" d="M127,526.732673 L133,526.732673" stroke="#61BD6D"></path>
                            <path id="Line-Copy-decoration-2" d="M133,10.8 L130,-5.68434189e-14 L127,10.8" stroke="#61BD6D"></path>
                        </g>
                    </g>
                    <g id="Group" transform="translate(560.000000, 385.000000)">
                        <polygon id="Polygon" stroke="#54ACD2" stroke-width="2" stroke-linejoin="round" fill-opacity="0.9" fill="#FFFFFF" transform="translate(105.513299, 81.000000) rotate(90.000000) translate(-105.513299, -81.000000) " points="105.513299 -24 186.026599 28.5 186.026599 133.5 105.513299 186 25 133.5 25 28.5"></polygon>
                        <text id="Customer-Adapter" font-family=".SFNSDisplay-Regular, .SF NS Display" font-size="24" font-weight="normal" fill="#3D8EB9">
                            <tspan x="54.546875" y="76">Customer</tspan>
                            <tspan x="64.1503906" y="104">Adapter</tspan>
                        </text>
                    </g>
                    <g id="Group" transform="translate(560.000000, 23.000000)">
                        <polygon id="Polygon" stroke="#54ACD2" stroke-width="2" stroke-linejoin="round" fill-opacity="0.9" fill="#FFFFFF" transform="translate(105.513299, 81.000000) rotate(90.000000) translate(-105.513299, -81.000000) " points="105.513299 -24 186.026599 28.5 186.026599 133.5 105.513299 186 25 133.5 25 28.5"></polygon>
                        <text id="MessageHub-Adapter" font-family=".SFNSDisplay-Regular, .SF NS Display" font-size="24" font-weight="normal" fill="#3D8EB9">
                            <tspan x="36.4589844" y="76">MessageHub</tspan>
                            <tspan x="64.1503906" y="104">Adapter</tspan>
                        </text>
                    </g>
                    <g id="Group" transform="translate(563.000000, 743.000000)">
                        <polygon id="Polygon" stroke="#54ACD2" stroke-width="2" stroke-linejoin="round" fill-opacity="0.9" fill="#FFFFFF" transform="translate(105.513299, 81.000000) rotate(90.000000) translate(-105.513299, -81.000000) " points="105.513299 -24 186.026599 28.5 186.026599 133.5 105.513299 186 25 133.5 25 28.5"></polygon>
                        <text id="DashDB-Adapter" font-family=".SFNSDisplay-Regular, .SF NS Display" font-size="24" font-weight="normal" fill="#3D8EB9">
                            <tspan x="63.0722656" y="76">DashDB</tspan>
                            <tspan x="64.1503906" y="104">Adapter</tspan>
                        </text>
                    </g>
                    <g id="Group" transform="translate(292.000000, 372.000000)">
                        <polygon id="Polygon" stroke="#54ACD2" stroke-width="2" stroke-linejoin="round" fill-opacity="0.9" fill="#FFFFFF" transform="translate(122.015379, 93.500000) rotate(90.000000) translate(-122.015379, -93.500000) " points="122.015379 -27.7037037 215.120806 32.8981481 215.120806 154.101852 122.015379 214.703704 28.9099526 154.101852 28.9099526 32.8981481"></polygon>
                        <text id="Login-Adapter" font-family=".SFNSDisplay-Regular, .SF NS Display" font-size="24" font-weight="normal" fill="#3D8EB9">
                            <tspan x="93.2539062" y="84.1790123">Login</tspan>
                            <tspan x="80.6503906" y="112.179012">Adapter</tspan>
                        </text>
                    </g>
                    <g id="Group-2" transform="translate(0.000000, 328.000000)">
                        <rect id="Rectangle" stroke="#54ACD2" stroke-width="2" stroke-linejoin="round" fill-opacity="0.9" fill="#FFFFFF" x="0" y="0" width="175" height="262" rx="8"></rect>
                        <text id="Mobile-App" font-family=".SFNSDisplay-Regular, .SF NS Display" font-size="24" font-weight="normal" fill="#3D8EB9">
                            <tspan x="29.1074219" y="140">Mobile App</tspan>
                        </text>
                    </g>
                    <g id="Group-4" transform="translate(1063.000000, 0.000000)">
                        <path d="M0,195 C0,197.76 2.24,200 5,200 L75,200 C77.76,200 80,197.76 80,195 L80,5 C80,2.24 77.76,0 75,0 L5,0 C2.24,0 0,2.24 0,5 L0,195 Z" id="Shape" fill-opacity="0.6" fill="#4990E2"></path>
                        <path d="M151,195 C151,197.76 153.24,200 156,200 L226,200 C228.76,200 231,197.76 231,195 L231,5 C231,2.24 228.76,0 226,0 L156,0 C153.24,0 151,2.24 151,5 L151,195 Z" id="Shape" fill-opacity="0.8" fill="#4A90E2"></path>
                        <text id="IN-Producer" font-family=".SFNSDisplay-Regular, .SF NS Display" font-size="24" font-weight="normal" fill="#3D8EB9">
                            <tspan x="36.4140625" y="243">IN</tspan>
                            <tspan x="0.232421875" y="271">Producer</tspan>
                        </text>
                        <text id="OUT-Consumer" font-family=".SFNSDisplay-Regular, .SF NS Display" font-size="24" font-weight="normal" fill="#3D8EB9">
                            <tspan x="166.777344" y="243">OUT</tspan>
                            <tspan x="137.228516" y="271">Consumer</tspan>
                        </text>
                    </g>
                    <path d="M1061,924 C1061,926.76 1064.08,929 1067.875,929 L1164.125,929 C1167.92,929 1171,926.76 1171,924 L1171,734 C1171,731.24 1167.92,729 1164.125,729 L1067.875,729 C1064.08,729 1061,731.24 1061,734 L1061,924 Z" id="Shape" fill-opacity="0.6" fill="#4990E2"></path>
                    <path d="M1185,924 C1185,926.76 1188.08,929 1191.875,929 L1288.125,929 C1291.92,929 1295,926.76 1295,924 L1295,734 C1295,731.24 1291.92,729 1288.125,729 L1191.875,729 C1188.08,729 1185,731.24 1185,734 L1185,924 Z" id="Shape" fill-opacity="0.8" fill="#4A90E2"></path>
                    <text id="READ" font-family=".SFNSDisplay-Regular, .SF NS Display" font-size="24" font-weight="normal" fill="#3D8EB9">
                        <tspan x="1086.35742" y="970">READ</tspan>
                    </text>
                    <text id="WRITE" font-family=".SFNSDisplay-Regular, .SF NS Display" font-size="24" font-weight="normal" fill="#3D8EB9">
                        <tspan x="1205.25391" y="970">WRITE</tspan>
                    </text>
                    <text id="A.-Write-Costumer" font-family=".SFNSDisplay-Regular, .SF NS Display" font-size="24" font-weight="normal" fill="#4A4A4A">
                        <tspan x="801.224609" y="45">A. Write Costumer</tspan>
                    </text>
                    <text id="B.Write-Visit-Reques" font-family=".SFNSDisplay-Regular, .SF NS Display" font-size="24" font-weight="normal" fill="#4A4A4A">
                        <tspan x="776.316406" y="174">B.Write Visit Request</tspan>
                    </text>
                    <text id="A.Costumer-Update" font-family=".SFNSDisplay-Regular, .SF NS Display" font-size="24" font-weight="normal" fill="#4A4A4A">
                        <tspan x="1385.22656" y="45">A.Costumer Update</tspan>
                    </text>
                    <text id="A.Costumer-Copy" font-family=".SFNSDisplay-Regular, .SF NS Display" font-size="24" font-weight="normal" fill="#4A4A4A">
                        <tspan x="1372.41406" y="899">A.Costumer Copy</tspan>
                    </text>
                    <text id="B.-Visit-Request-Upd" font-family=".SFNSDisplay-Regular, .SF NS Display" font-size="24" font-weight="normal" fill="#4A4A4A">
                        <tspan x="1353.4082" y="174">B.  Visit Request Update</tspan>
                    </text>
                    <text id="B.-Visit-Request-Cop" font-family=".SFNSDisplay-Regular, .SF NS Display" font-size="24" font-weight="normal" fill="#4A4A4A">
                        <tspan x="1363.0957" y="768">B.  Visit Request Copy</tspan>
                    </text>
                    <g id="Group-7" transform="translate(1625.000000, 0.000000)">
                        <circle id="Oval" stroke="#54ACD2" stroke-width="2" stroke-linejoin="round" fill-opacity="0.9" fill="#FFFFFF" cx="100.5" cy="100.5" r="100.5"></circle>
                        <text id="MessageHub-Consumer" font-family=".SFNSDisplay-Regular, .SF NS Display" font-size="24" font-weight="normal" fill="#3D8EB9">
                            <tspan x="31.4589844" y="96">MessageHub</tspan>
                            <tspan x="46.7285156" y="124">Consumer</tspan>
                        </text>
                    </g>
                    <g id="Group-3" transform="translate(1607.000000, 700.000000)">
                        <circle id="Oval" stroke="#54ACD2" stroke-width="2" stroke-linejoin="round" fill-opacity="0.9" fill="#FFFFFF" cx="118.5" cy="118.5" r="100.5"></circle>
                        <circle id="Oval" stroke="#54ACD2" stroke-width="2" stroke-linejoin="round" fill-opacity="0.9" fill="#FFFFFF" cx="118.5" cy="118.5" r="118.5"></circle>
                        <text id="OnPrem-CRM" font-family=".SFNSDisplay-Regular, .SF NS Display" font-size="24" font-weight="normal" fill="#3D8EB9">
                            <tspan x="76.4609375" y="114">OnPrem</tspan>
                            <tspan x="93.546875" y="142">CRM</tspan>
                        </text>
                    </g>
                    <text id="C.-Read-Visit-Reques" font-family=".SFNSDisplay-Regular, .SF NS Display" font-size="24" font-weight="normal" fill="#4A4A4A">
                        <tspan x="784.351562" y="766">C. Read Visit Request</tspan>
                    </text>
                    <text id="D.-Read-Customer" font-family=".SFNSDisplay-Regular, .SF NS Display" font-size="24" font-weight="normal" fill="#4A4A4A">
                        <tspan x="793.052734" y="897">D. Read Customer</tspan>
                    </text>
                    <g id="Group-9" transform="translate(1603.000000, 277.000000)"></g>
                    <g id="Group-9" transform="translate(1597.000000, 271.000000)">
                        <path d="M50,309 L50,71 L9.99479994,71 C5.57939385,71 2,67.4182311 2,62.9934121 L2,8.00658791 C2,3.58467151 5.58301647,0 9.99479994,0 L246.610834,0 C251.02624,0 254.605634,3.58176891 254.605634,8.00658791 L254.605634,62.9934121 C254.605634,67.4153285 251.022617,71 246.610834,71 L207,71 L207,309 L248.004558,309 C252.420319,309 256,312.581769 256,317.006588 L256,371.993412 C256,376.415328 252.417785,380 248.004558,380 L7.99544162,380 C3.57968115,380 0,376.418231 0,371.993412 L0,317.006588 C0,312.584672 3.58221516,309 7.99544162,309 L50,309 Z" id="Combined-Shape" stroke="#54ACD2" stroke-width="2" stroke-linejoin="round" fill-opacity="0.9" fill="#FFFFFF"></path>
                        <text id="SecureGateway-Bluemi" font-family=".SFNSDisplay-Regular, .SF NS Display" font-size="24" font-weight="normal" fill="#3D8EB9">
                            <tspan x="46.073531" y="29">SecureGateway</tspan>
                            <tspan x="25.7239217" y="57">Bluemix Destination</tspan>
                        </text>
                        <text id="Protected-Tunnel" font-family=".SFNSDisplay-Regular, .SF NS Display" font-size="24" font-weight="normal" fill="#3D8EB9">
                            <tspan x="77.6731251" y="185">Protected </tspan>
                            <tspan x="92.8254688" y="213">Tunnel</tspan>
                        </text>
                        <text id="SecureGateway-Docker" font-family=".SFNSDisplay-Regular, .SF NS Display" font-size="24" font-weight="normal" fill="#3D8EB9">
                            <tspan x="45.8584586" y="340">SecureGateway</tspan>
                            <tspan x="58.192443" y="368">Docker Client</tspan>
                        </text>
                    </g>
                    <g id="Group-8" transform="translate(1775.000000, 599.000000)"></g>
                    <g id="Group-7" transform="translate(1460.000000, 828.500000) rotate(180.000000) translate(-1460.000000, -828.500000) translate(1310.000000, 791.000000)" stroke-width="4" stroke-linecap="square">
                        <path d="M0,1 L300,1" id="Line-Copy" stroke="#FAC51C"></path>
                        <path id="Line-Copy-decoration-1" d="M0,-2 L0,4" stroke="#FAC51C"></path>
                        <path id="Line-Copy-decoration-2" d="M289.2,4 L300,1 L289.2,-2" stroke="#FAC51C"></path>
                        <path d="M0,74 L300,74" id="Line-Copy" stroke="#61BD6D"></path>
                        <path id="Line-Copy-decoration-1" d="M0,71 L0,77" stroke="#61BD6D"></path>
                        <path id="Line-Copy-decoration-2" d="M289.2,77 L300,74 L289.2,71" stroke="#61BD6D"></path>
                    </g>
                    <text id="POST-OnPrem" font-family=".SFNSDisplay-Bold, .SF NS Display" font-size="26" font-weight="bold" fill="#000000">
                        <tspan x="1691.50195" y="229">POST  </tspan>
                        <tspan x="1676.22949" y="259">OnPrem</tspan>
                    </text>
                    <text id="A" font-family=".SFNSDisplay-Regular, .SF NS Display" font-size="24" font-weight="normal" fill="#4A4A4A">
                        <tspan x="605.253906" y="283">A</tspan>
                    </text>
                    <text id="B" font-family=".SFNSDisplay-Regular, .SF NS Display" font-size="24" font-weight="normal" fill="#4A4A4A">
                        <tspan x="721.140625" y="283">B</tspan>
                    </text>
                    <text id="C" font-family=".SFNSDisplay-Regular, .SF NS Display" font-size="24" font-weight="normal" fill="#4A4A4A">
                        <tspan x="717.267578" y="635">C</tspan>
                    </text>
                    <text id="D" font-family=".SFNSDisplay-Regular, .SF NS Display" font-size="24" font-weight="normal" fill="#4A4A4A">
                        <tspan x="600.126953" y="635">D</tspan>
                    </text>
                    <text id="POST" font-family=".SFNSDisplay-Bold, .SF NS Display" font-size="26" font-weight="bold" fill="#000000">
                        <tspan x="851.001953" y="111">POST</tspan>
                    </text>
                    <text id="Subscribe" font-family=".SFNSDisplay-Bold, .SF NS Display" font-size="26" font-weight="bold" fill="#000000">
                        <tspan x="1403.26416" y="111">Subscribe</tspan>
                    </text>
                    <g id="Group-11" transform="translate(1093.000000, 79.000000)">
                        <rect id="Rectangle-4" fill="#FFFFFF" x="0" y="0" width="176" height="44" rx="8"></rect>
                        <text id="MessageHub" font-family=".SFNSDisplay-Regular, .SF NS Display" font-size="24" font-weight="normal" fill="#3D8EB9">
                            <tspan x="19.4589844" y="31">MessageHub</tspan>
                        </text>
                    </g>
                    <g id="Group-10" transform="translate(1097.000000, 804.000000)">
                        <rect id="Rectangle-4" fill="#FFFFFF" x="0" y="0" width="176" height="44" rx="8"></rect>
                        <text id="DashDB" font-family=".SFNSDisplay-Regular, .SF NS Display" font-size="24" font-weight="normal" fill="#3D8EB9">
                            <tspan x="46.0722656" y="30">DashDB</tspan>
                        </text>
                    </g>
                    <text id="Replicate-Data" font-family=".SFNSDisplay-Bold, .SF NS Display" font-size="26" font-weight="bold" fill="#000000">
                        <tspan x="1350.17383" y="836">Replicate Data</tspan>
                    </text>
                    <text id="GET" font-family=".SFNSDisplay-Bold, .SF NS Display" font-size="26" font-weight="bold" fill="#000000">
                        <tspan x="874.212402" y="836">GET</tspan>
                    </text>
                    <text id="A" font-family=".SFNSDisplay-Regular, .SF NS Display" font-size="24" font-weight="normal" fill="#4A4A4A">
                        <tspan x="183.429688" y="422">A</tspan>
                    </text>
                    <text id="B" font-family=".SFNSDisplay-Regular, .SF NS Display" font-size="24" font-weight="normal" fill="#4A4A4A">
                        <tspan x="183.140625" y="459">B</tspan>
                    </text>
                    <text id="C" font-family=".SFNSDisplay-Regular, .SF NS Display" font-size="24" font-weight="normal" fill="#4A4A4A">
                        <tspan x="183.267578" y="496">C</tspan>
                    </text>
                    <text id="D" font-family=".SFNSDisplay-Regular, .SF NS Display" font-size="24" font-weight="normal" fill="#4A4A4A">
                        <tspan x="183.302734" y="533">D</tspan>
                    </text>
                    <text id="E.-Credentials" font-family=".SFNSDisplay-Regular, .SF NS Display" font-size="24" font-weight="normal" fill="#4A4A4A">
                        <tspan x="183.068359" y="388">E. Credentials</tspan>
                    </text>
                </g>
            </g>
            <rect id="MobileApp" fill-opacity="0.129698822" fill="#9B9B9B" style="mix-blend-mode: color-burn;" x="36" y="409" width="246" height="350" rx="8"></rect>
            <rect id="LoginAdapter" fill-opacity="0.129698822" fill="#9B9B9B" style="mix-blend-mode: color-burn;" x="340" y="457" width="277" height="254" rx="8"></rect>
            <rect id="CustomerAdapter" fill-opacity="0.129698822" fill="#9B9B9B" style="mix-blend-mode: color-burn;" x="623" y="457" width="246" height="254" rx="8"></rect>
            <rect id="DashDBAdapter" fill-opacity="0.129698822" fill="#9B9B9B" style="mix-blend-mode: color-burn;" x="623" y="819" width="246" height="254" rx="8"></rect>
            <rect id="OnPremCRM" fill-opacity="0.129698822" fill="#9B9B9B" style="mix-blend-mode: color-burn;" x="1664" y="809" width="277" height="262" rx="8"></rect>
            <rect id="MessageHubConsumer" fill-opacity="0.129698822" fill="#9B9B9B" style="mix-blend-mode: color-burn;" x="1679" y="95" width="246" height="254" rx="8"></rect>
            <rect id="MessageHubAdapter" fill-opacity="0.129698822" fill="#9B9B9B" style="mix-blend-mode: color-burn;" x="623" y="95" width="246" height="254" rx="8"></rect>
            <rect id="MessageHub" fill-opacity="0.129698822" fill="#9B9B9B" style="mix-blend-mode: color-burn;" x="1078" y="81" width="337" height="348" rx="8"></rect>
            <rect id="DashDB" fill-opacity="0.129698822" fill="#9B9B9B" style="mix-blend-mode: color-burn;" x="1078" y="790" width="337" height="348" rx="8"></rect>
            <text id="Guide-4" font-family=".SFNSDisplay-Bold, .SF NS Display" font-size="24" font-weight="bold" fill="#4A4A4A">
                <tspan x="1759.03125" y="994">Guide 4</tspan>
            </text>
            <rect id="SecureGateway" fill-opacity="0.129698822" fill="#9B9B9B" style="mix-blend-mode: color-burn;" x="1644" y="352" width="297" height="456" rx="8"></rect>
            <text id="Guide-1" font-family=".SFNSDisplay-Bold, .SF NS Display" font-size="24" font-weight="bold" fill="#4A4A4A">
                <tspan x="118.046875" y="746">Guide 1</tspan>
            </text>
            <text id="Guide-2" font-family=".SFNSDisplay-Bold, .SF NS Display" font-size="24" font-weight="bold" fill="#4A4A4A">
                <tspan x="435.570312" y="705">Guide 2</tspan>
            </text>
            <text id="Guide-3" font-family=".SFNSDisplay-Bold, .SF NS Display" font-size="24" font-weight="bold" fill="#4A4A4A">
                <tspan x="777.248047" y="704">Guide 3</tspan>
            </text>
            <text id="Guide-5" font-family=".SFNSDisplay-Bold, .SF NS Display" font-size="24" font-weight="bold" fill="#4A4A4A">
                <tspan x="1203.30664" y="102">Guide 5</tspan>
            </text>
            <text id="Guide-6" font-family=".SFNSDisplay-Bold, .SF NS Display" font-size="24" font-weight="bold" fill="#4A4A4A">
                <tspan x="703.089844" y="120">Guide 6</tspan>
            </text>
            <text id="Guide-7" font-family=".SFNSDisplay-Bold, .SF NS Display" font-size="24" font-weight="bold" fill="#4A4A4A">
                <tspan x="1759.93945" y="117">Guide 7</tspan>
            </text>
            <text id="Guide-8" font-family=".SFNSDisplay-Bold, .SF NS Display" font-size="24" font-weight="bold" fill="#4A4A4A">
                <tspan x="1749.97852" y="674">Guide 8</tspan>
            </text>
            <text id="Guide-9" font-family=".SFNSDisplay-Bold, .SF NS Display" font-size="24" font-weight="bold" fill="#4A4A4A">
                <tspan x="1203.06641" y="1131">Guide 9</tspan>
            </text>
            <text id="Guide-10" font-family=".SFNSDisplay-Bold, .SF NS Display" font-size="24" font-weight="bold" fill="#4A4A4A">
                <tspan x="697.236328" y="1059">Guide 10</tspan>
            </text>
        </g>
    </g>
</svg>